<?xml version="1.0" encoding="utf-8"?>
<!-- Generator: Adobe Illustrator 16.0.0, SVG Export Plug-In . SVG Version: 6.00 Build 0)  -->
<!DOCTYPE svg PUBLIC "-//W3C//DTD SVG 1.1//EN" "http://www.w3.org/Graphics/SVG/1.1/DTD/svg11.dtd">
<svg version="1.1" xmlns="http://www.w3.org/2000/svg" xmlns:xlink="http://www.w3.org/1999/xlink" x="0px" y="0px" width="19px"
	 height="19px" viewBox="0 0 19 19" enable-background="new 0 0 19 19" xml:space="preserve">
<g id="Layer_1">
</g>
<g id="Layer_2">
	<path fill="#FFFFFF" d="M732,1265H-356V-143c0,0,95.891,0,230.737,0c7.097,0,14.302,0,21.607,0C-7-144,91-145,188-143.063
		c8.5,0.026,17,0.037,25.492,0.063C476.734-143,732-143,732-143V1265z"/>
</g>
<g id="Layer_3">
	<g>
		<rect x="-323" y="-43.67" fill="none" width="786.447" height="190.52"/>
		<text transform="matrix(1 0 0 1 -323 -32.3105)"><tspan x="0" y="0" fill="#4D4D4D" font-family="'OpenSans-Light'" font-size="16">Круизный центр «ЛАТТИ»  предлагает Вам исчерпывающую информацию для правильного выбора Вашего </tspan><tspan x="0" y="23" fill="#4D4D4D" font-family="'OpenSans-Light'" font-size="16">идеального речного круиза. Воспользуйтесь нашей базой данных, где собраны все речные круизы и все </tspan><tspan x="0" y="46" fill="#4D4D4D" font-family="'OpenSans-Light'" font-size="16">теплоходы , представлены расписания движения, графики, описания и схемы судов, стоимости круизов по </tspan><tspan x="0" y="69" fill="#4D4D4D" font-family="'OpenSans-Light'" font-size="16">рекам и озерам России  в навигацию 2015 года  как из Санкт-Петербурга, так и из других городов по всем </tspan><tspan x="0" y="92" fill="#4D4D4D" font-family="'OpenSans-Light'" font-size="16">направлениям. </tspan><tspan x="0" y="138" fill="#4D4D4D" font-family="'OpenSans-Light'" font-size="16">Вам нужна помощь? Мы быстро и эффективно подберем для Вас речной круиз , учитывая все ваши потребности </tspan><tspan x="0" y="161" fill="#4D4D4D" font-family="'OpenSans-Light'" font-size="16">и пожелания.</tspan></text>
	</g>
	<rect x="-325" y="-47" fill="#A8E0FF" width="761" height="176"/>
	<g>
		<rect x="-90" fill="#FFFFFF" width="109" height="19"/>
	</g>
	<g>
		<rect fill="#D5F0FF" width="19" height="19"/>
		<polygon fill="#3897D1" points="15.658,8 10.001,13.657 4.344,8 		"/>
	</g>
</g>
</svg>
